<svg xmlns:xlink="http://www.w3.org/1999/xlink" xmlns="http://www.w3.org/2000/svg" width="222" height="22" viewBox="0 0 222 22" class="css-1j8o68f"><defs id="SvgjsDefs31261"><linearGradient id="SvgjsLinearGradient31268"><stop id="SvgjsStop31269" stop-color="#616161" offset="0"></stop><stop id="SvgjsStop31270" stop-color="#e6e7e8" offset="0.5"></stop><stop id="SvgjsStop31271" stop-color="#616161" offset="1"></stop></linearGradient><linearGradient id="SvgjsLinearGradient31272"><stop id="SvgjsStop31273" stop-color="#616161" offset="0"></stop><stop id="SvgjsStop31274" stop-color="#e6e7e8" offset="0.5"></stop><stop id="SvgjsStop31275" stop-color="#616161" offset="1"></stop></linearGradient><linearGradient id="SvgjsLinearGradient31276"><stop id="SvgjsStop31277" stop-color="#616161" offset="0"></stop><stop id="SvgjsStop31278" stop-color="#e6e7e8" offset="0.5"></stop><stop id="SvgjsStop31279" stop-color="#616161" offset="1"></stop></linearGradient><linearGradient id="SvgjsLinearGradient31268"><stop id="SvgjsStop31269" stop-color="#616161" offset="0"></stop><stop id="SvgjsStop31270" stop-color="#e6e7e8" offset="0.5"></stop><stop id="SvgjsStop31271" stop-color="#616161" offset="1"></stop></linearGradient><linearGradient id="SvgjsLinearGradient31268"><stop id="SvgjsStop31269" stop-color="#616161" offset="0"></stop><stop id="SvgjsStop31270" stop-color="#e6e7e8" offset="0.5"></stop><stop id="SvgjsStop31271" stop-color="#616161" offset="1"></stop></linearGradient><linearGradient id="SvgjsLinearGradient31268"><stop id="SvgjsStop31269" stop-color="#616161" offset="0"></stop><stop id="SvgjsStop31270" stop-color="#e6e7e8" offset="0.5"></stop><stop id="SvgjsStop31271" stop-color="#616161" offset="1"></stop></linearGradient><linearGradient id="SvgjsLinearGradient31272"><stop id="SvgjsStop31273" stop-color="#616161" offset="0"></stop><stop id="SvgjsStop31274" stop-color="#e6e7e8" offset="0.5"></stop><stop id="SvgjsStop31275" stop-color="#616161" offset="1"></stop></linearGradient><linearGradient id="SvgjsLinearGradient31272"><stop id="SvgjsStop31273" stop-color="#616161" offset="0"></stop><stop id="SvgjsStop31274" stop-color="#e6e7e8" offset="0.5"></stop><stop id="SvgjsStop31275" stop-color="#616161" offset="1"></stop></linearGradient><linearGradient id="SvgjsLinearGradient31272"><stop id="SvgjsStop31273" stop-color="#616161" offset="0"></stop><stop id="SvgjsStop31274" stop-color="#e6e7e8" offset="0.5"></stop><stop id="SvgjsStop31275" stop-color="#616161" offset="1"></stop></linearGradient><linearGradient id="SvgjsLinearGradient31276"><stop id="SvgjsStop31277" stop-color="#616161" offset="0"></stop><stop id="SvgjsStop31278" stop-color="#e6e7e8" offset="0.5"></stop><stop id="SvgjsStop31279" stop-color="#616161" offset="1"></stop></linearGradient><linearGradient id="SvgjsLinearGradient31276"><stop id="SvgjsStop31277" stop-color="#616161" offset="0"></stop><stop id="SvgjsStop31278" stop-color="#e6e7e8" offset="0.5"></stop><stop id="SvgjsStop31279" stop-color="#616161" offset="1"></stop></linearGradient></defs><g id="SvgjsG31262" featurekey="symbolFeature-0" transform="matrix(0.02740344452428225,0,0,0.02740344452428225,0.0005347090135032927,1.0016850132838704)" fill="url(&quot;#SvgjsLinearGradient31268&quot;)"><g xmlns="http://www.w3.org/2000/svg" fill="url(&quot;#SvgjsLinearGradient31268&quot;)">    <path d="M1168.6,327.5c-57.1-39.5-153-26.2-216-12.4c-43,9.4-85.3,21.6-127.8,32.9c-46.1,12.2-62.5,18.5-103.4-8.2         c-66-43.1-131.5-87.2-197.1-131C641,168.3,757.7,129.4,876.2,94.1c57-17,118.3-42.6,177.4-49.6c38.7-4.5,41.1,12,60.6,41.4         c12.7,19.2,54.6,56.4,66.1,10.1c6.7-27-29.5-54.2-48.3-67.8c-78.5-56.8-177.1-14.8-260.5,11.8C764.4,74.3,658,110.8,551.3,146.5         c-23.5,7.9-59.9,26.9-84.9,22.2c-19.9-3.7-40.7-21.1-59.9-29.5c-48.1-20.9-99.9-31.4-151.2-41.1c-51.7-9.7-102.4-17.7-154.9-7.9         c-33.7,6.3-93.6,17.6-99.6,57.9c-10.8,72.3,87.7,117.2,144.9,119c52.7,1.7,108.6-9.9,160.8-16.7c44.7-5.8,101.3-23.1,146.4-18.6         c41.7,4.2,81.4,46.9,114.8,71.3c43.4,31.7,86.7,63.7,130,95.5c-41,18.4-81.9,37.2-123.1,55.3c-41.4,18.1-56.9,23.2-97.7,4.6         c-76.1-34.7-156.8-66.9-242.8-50.5c-75.9,14.4-51,84.9-1.1,113.9c32.6,18.9,45.9,18.7,81.3,22.7c34.6,4,66.1,27.5,102.1,32.2         c44,5.7,74.4-15.3,115.1-17.2c35.7-1.7,66.6,29.6,93.9,49.3c65.8,47.4,129.5,94.4,209.1,115.8c35.2,9.5,125.4,35.6,133.9-19.9         c3.9-25.2-13.4-58-35.6-68.5c-11.2-5.3-25.5-7.9-37.6-3.3c-25.8,9.7-18.1,13.6-10.4,38.7c-78.4,0-150.6-44.1-213.2-88.4         c-13.5-9.5-67-37.7-61.9-58.9c4.8-20,77.2-41.9,93.5-49.6c43.7-20.8,64.3-31,111.7-18c42.6,11.7,84.7,25.2,127.1,37.2         c72.8,20.6,156.7,31,225.4-11.6C1224.4,447.2,1222.7,364.9,1168.6,327.5z M184.6,233.2c-34.2,1.4-149.2-12.9-146.9-62.6         c2.6-54.5,140.7-48.2,176.2-44.9c36.2,3.3,70.8,13.5,105.3,24.7c27.9,9,82.7,15.1,80.9,46.2C329.4,210.2,256.6,230.2,184.6,233.2z          M297.5,510.3c-28.7-4.9-102.3-12.1-76.6-52c23-35.7,82.1-15.6,113.8-8.9c27.8,5.9,119.4,20.5,114.8,50         C400.4,515.7,348.5,519,297.5,510.3z M1179,412.1c-16.8,61.9-121.8,55.6-168.7,49.4c-35.6-4.8-70.4-15.3-104.8-25.3         c-14.7-4.3-40.8-6.1-52-15.1c-13-10.5-10.3-6.3-9.8-27c71.4-18.3,144-43.6,217.6-50.1C1100.7,340.5,1195.8,350.2,1179,412.1z" fill="url(&quot;#SvgjsLinearGradient31268&quot;)"></path></g></g><g id="SvgjsG31263" featurekey="textGroupContainer" transform="matrix(1,0,0,1,221,0)" fill="url(&quot;#SvgjsLinearGradient31272&quot;)"><rect xmlns="http://www.w3.org/2000/svg" y="0" height="1" width="1" opacity="0" fill="url(&quot;#SvgjsLinearGradient31272&quot;)"></rect><rect xmlns="http://www.w3.org/2000/svg" y="0" x="-168" width="3" height="22" fill="url(&quot;#SvgjsLinearGradient31272&quot;)"></rect></g><g id="SvgjsG31264" featurekey="nameFeature-0" transform="matrix(0.38111587925114293,0,0,0.38111587925114293,70.80181975005861,1.6400345012895121)" fill="url(&quot;#SvgjsLinearGradient31276&quot;)"><path d="M0.52 40 c0 0 1.88 -2.36 1.88 -4.76 l0 -18.44 c0 -2.4 -1.88 -4.8 -1.88 -4.8 l12.16 0 s-0.454 1.5708 0.23641 4.2232 l3.6836 11.817 l3.6836 -11.817 c0.69 -2.6524 0.23641 -4.2232 0.23641 -4.2232 l12.16 0 s-1.88 2.4 -1.88 4.8 l0 18.44 c0 2.4 1.88 4.76 1.88 4.76 l-10.96 0 s1.88 -2.36 1.88 -4.76 l0 -10.76 l-5 11.92 l-4 0 l-5 -11.92 l0 10.76 c0 2.4 1.88 4.76 1.88 4.76 l-10.96 0 z M13.44 36.4 c0 0 0.36 -1.88 -0.84 -4.76 l2 4.76 l-1.16 0 z M18.6 36.4 l2 -4.76 c-1.2 2.88 -0.84 4.76 -0.84 4.76 l-1.16 0 z M33.720000000000006 40 c0 0 1.88 -2.4 1.88 -4.76 l0 -18.48 c0 -2.36 -1.88 -4.76 -1.88 -4.76 l11.76 0 s-1.88 2.4 -1.88 4.76 l0 18.48 c0 2.36 1.88 4.76 1.88 4.76 l-11.76 0 z M46.52 40 c0 0 1.88 -2.4 1.88 -4.8 l0 -18.44 c0 -2.4 -1.88 -4.76 -1.88 -4.76 l11.76 0 s-1.88 2.36 -1.88 4.76 l0 16.84 l6.04 0 c2.36 0 4.76 -1.88 4.76 -1.88 l0 8.28 l-20.68 0 z M68.11999999999999 40 c0 0 1.88 -2.4 1.88 -4.8 l0 -18.44 c0 -2.4 -1.88 -4.76 -1.88 -4.76 l11.76 0 s-1.88 2.36 -1.88 4.76 l0 16.84 l6.04 0 c2.36 0 4.76 -1.88 4.76 -1.88 l0 8.28 l-20.68 0 z M89.71999999999998 40 c0 0 1.88 -2.4 1.88 -4.76 l0 -18.48 c0 -2.36 -1.88 -4.76 -1.88 -4.76 l11.76 0 s-1.88 2.4 -1.88 4.76 l0 18.48 c0 2.36 1.88 4.76 1.88 4.76 l-11.76 0 z M116.43999999999998 40.56 c-7.32 0 -13.64 -3.6 -13.64 -14.56 c0 -9.4 5.52 -14.56 12.84 -14.56 s13.64 3.6 13.64 14.56 c0 9.44 -5.52 14.56 -12.84 14.56 z M116.19999999999999 34.76 c2.68 0 4.68 -3.12 4.68 -8.76 c0 -6.6 -2.32 -8.72 -5 -8.72 s-4.68 3.08 -4.68 8.72 c0 6.6 2.32 8.76 5 8.76 z M130.6 40 c0 0 1.88 -2.4 1.88 -4.76 l0 -18.48 c0 -2.36 -1.88 -4.76 -1.88 -4.76 l11.44 0 s-0.32 1.96 0.88 4.76 l5.16 12.04 l0 -12.04 c0 -2.36 -1.88 -4.76 -1.88 -4.76 l10.96 0 s-1.88 2.4 -1.88 4.76 l0 18.48 c0 2.36 1.88 4.76 1.88 4.76 l-10.28 0 l-7.2 -16 l0 16 l-9.08 0 z M145.71999999999997 40 c0 0 0.27558 -1.9288 -0.97 -4.6932 l2.13 4.6932 l-1.16 0 z M157.29120999999998 40 c0 0 1.9932 -1.5804 3.0424 -4.7728 l6.0636 -18.454 c0.9864 -3.0024 0.41404 -4.7736 0.41404 -4.7736 l12.709 0 s-0.5724 1.7712 0.41404 4.7736 l0 0 l6.0636 18.454 c1.0492 3.1924 3.0424 4.7724 3.0424 4.7724 l-11.749 0 s1.4008 -1.644 0.51436 -4.72 l-9.28 0 c-0.8864 3.076 0.51436 4.72 0.51436 4.72 l-11.749 0 z M170.16599999999997 29.48 l6 0 l-3 -10.48 z M213.11999999999998 40.56 c-5.2 0 -10 -3.4 -10.76 -9.68 c-0.76 0.04 -2.6 0.08 -3.32 0.08 l0 4.28 c0 2.36 1.88 4.76 1.88 4.76 l-11.76 0 s1.88 -2.4 1.88 -4.76 l0 -18.48 c0 -2.36 -1.88 -4.76 -1.88 -4.76 l12.4 0 c6.6 0 12.24 2.72 12.24 8.92 c0 4.16 -2.08 6.84 -5.2 8.36 c0.12 3.44 3.76 4.36 6.4 2.64 l0 8.48 c-0.6 0.12 -1.24 0.16 -1.88 0.16 z M199.04 25.64 l1.4 0 c2.84 0 5 -1.4 5 -3.96 c0 -2.96 -2.44 -3.96 -5.28 -3.96 l-1.12 0 l0 7.92 z M215.92 40 c0 0 1.88 -2.36 1.88 -4.76 l0 -18.44 c0 -2.4 -1.88 -4.8 -1.88 -4.8 l21.48 0 l0 8.28 s-2.4 -1.88 -4.8 -1.88 l-6.8 0 l0 5.2 l2.8 0 c2.4 0 4.8 -1.88 4.8 -1.88 l0 9.36 s-2.4 -1.88 -4.8 -1.88 l-2.8 0 l0 4.4 l6.8 0 c2.4 0 4.8 -1.88 4.8 -1.88 l0 8.28 l-21.48 0 z M248.72 40 c0 0 1.88 -2.36 1.88 -4.76 l0 -18.44 c0 -2.4 -1.88 -4.8 -1.88 -4.8 l12.16 0 s-0.454 1.5708 0.23641 4.2232 l3.6836 11.817 l3.6836 -11.817 c0.69 -2.6524 0.23641 -4.2232 0.23641 -4.2232 l12.16 0 s-1.88 2.4 -1.88 4.8 l0 18.44 c0 2.4 1.88 4.76 1.88 4.76 l-10.96 0 s1.88 -2.36 1.88 -4.76 l0 -10.76 l-5 11.92 l-4 0 l-5 -11.92 l0 10.76 c0 2.4 1.88 4.76 1.88 4.76 l-10.96 0 z M261.64 36.4 c0 0 0.36 -1.88 -0.84 -4.76 l2 4.76 l-1.16 0 z M266.8 36.4 l2 -4.76 c-1.2 2.88 -0.84 4.76 -0.84 4.76 l-1.16 0 z M281.91999999999996 40 c0 0 1.88 -2.4 1.88 -4.76 l0 -18.48 c0 -2.36 -1.88 -4.76 -1.88 -4.76 l11.76 0 s-1.88 2.4 -1.88 4.76 l0 18.48 c0 2.36 1.88 4.76 1.88 4.76 l-11.76 0 z M294.71999999999997 40 c0 0 1.88 -2.4 1.88 -4.76 l0 -18.48 c0 -2.36 -1.88 -4.76 -1.88 -4.76 l11.44 0 s-0.32 1.96 0.88 4.76 l5.16 12.04 l0 -12.04 c0 -2.36 -1.88 -4.76 -1.88 -4.76 l10.96 0 s-1.88 2.4 -1.88 4.76 l0 18.48 c0 2.36 1.88 4.76 1.88 4.76 l-10.28 0 l-7.2 -16 l0 16 l-9.08 0 z M309.84 40 c0 0 0.27558 -1.9288 -0.97 -4.6932 l2.13 4.6932 l-1.16 0 z M322.32 40 c0 0 1.84 -2.4 1.84 -4.76 l0 -18.48 c0 -2.36 -1.84 -4.76 -1.84 -4.76 l12.08 0 c7.32 0 14.04 3.44 14.04 14 c0 9.04 -5.92 14 -13.24 14 l-12.88 0 z M332.16 34.28 l1.32 0 c3.72 0 6.72 -2.92 6.72 -8.28 c0 -6.24 -2.6 -8.28 -6.32 -8.28 l-1.72 0 l0 16.56 z" fill="url(&quot;#SvgjsLinearGradient31276&quot;)"></path></g></svg>