<svg xmlns:xlink="http://www.w3.org/1999/xlink" xmlns="http://www.w3.org/2000/svg" width="200" height="52.47693603717565" viewBox="0 0 200 52.47693603717565" class="css-1j8o68f"><defs id="SvgjsDefs6369"></defs><g id="SvgjsG6370" featurekey="nameFeature-0" transform="matrix(1.7559988006819716,0,0,1.7559988006819716,-0.025822385079422666,-16.01470718661051)" fill="#FFFFFF"><path d="M12.6 15.760000000000002 c-0.32 0.4 -0.6 0.8 -0.88 1.2 c-1.96 2.88 -3.64 5.92 -5.2 9.04 c-1.36 2.76 -2.52 5.64 -3.6 8.52 l-0.6 1.56 c-0.12 0.24 -0.24 0.48 -0.4 0.68 c-0.48 0.68 -1.2 0.64 -1.44 -0.16 c-0.24 -0.76 -0.4 -1.6 -0.4 -2.4 c-0.2 -4.12 0.08 -8.2 0.56 -12.28 c0.04 -0.48 0.16 -1 0.28 -1.48 c0.04 -0.2 0.12 -0.44 0.2 -0.6 c0.16 -0.4 0.36 -0.8 0.84 -0.8 c0.44 0 0.68 0.32 0.84 0.72 c0.16 0.32 0.28 0.68 0.4 1.04 c0.28 0.92 0.52 1.8 0.8 2.72 c0.16 0.56 0.28 1.2 0.84 1.6 c0.08 0.08 0.08 0.32 0.04 0.44 s-0.28 0.2 -0.36 0.16 c-0.24 -0.12 -0.48 -0.24 -0.64 -0.44 c-0.2 -0.36 -0.4 -0.76 -0.52 -1.16 c-0.36 -1.08 -0.68 -2.16 -1 -3.24 c-0.08 -0.24 -0.2 -0.48 -0.32 -0.76 c-0.84 2.04 -1.36 13.6 -0.72 15.6 c0.28 -0.24 0.32 -0.56 0.44 -0.88 c0.8 -1.96 1.52 -4 2.32 -5.96 c1.84 -4.36 4.08 -8.52 6.72 -12.44 c0.36 -0.48 0.68 -0.92 1.08 -1.36 c0.16 -0.2 0.36 -0.4 0.6 -0.52 c0.52 -0.32 1.08 -0.08 1.2 0.52 c0.12 0.48 0.12 1 0.08 1.48 c-0.16 1.28 -0.32 2.56 -0.56 3.84 l-1.56 9 c-0.04 0.16 -0.04 0.28 0.04 0.44 c0.12 -0.24 0.2 -0.48 0.32 -0.72 c1.24 -3.28 2.68 -6.44 4.48 -9.48 c0.52 -0.88 1.12 -1.72 1.72 -2.56 c0.24 -0.36 0.56 -0.68 0.88 -0.96 c0.88 -0.72 1.76 -0.48 2.12 0.64 c0.08 0.24 0.16 0.52 0.16 0.76 c0 1.36 0.04 2.68 -0.04 4.04 c-0.24 3.08 -0.56 6.16 -0.8 9.24 c-0.08 0.84 -0.12 1.72 -0.12 2.6 c-0.04 0.44 -0.04 0.88 -0.04 1.2 c0.16 0.16 0.2 0.24 0.24 0.24 c0.48 0.16 0.64 0.32 0.52 0.64 c-0.12 0.4 -0.56 0.64 -0.96 0.52 s-0.64 -0.36 -0.72 -0.76 c-0.08 -0.44 -0.2 -0.92 -0.2 -1.4 c0.04 -1.2 0.04 -2.4 0.16 -3.6 c0.28 -3.12 0.6 -6.24 0.84 -9.4 c0.08 -0.92 0.12 -1.84 0.08 -2.8 c0 -0.4 -0.12 -0.8 -0.2 -1.4 c-0.36 0.32 -0.64 0.48 -0.8 0.68 c-0.48 0.6 -0.92 1.2 -1.32 1.8 c-2.12 3.28 -3.8 6.8 -5.16 10.44 c-0.16 0.48 -0.36 1 -0.56 1.48 c-0.08 0.2 -0.2 0.44 -0.32 0.64 c-0.16 0.32 -0.4 0.64 -0.8 0.6 c-0.36 -0.04 -0.64 -0.36 -0.6 -0.88 c0 -1.16 0.04 -2.36 0.24 -3.52 c0.44 -2.84 1.04 -5.68 1.56 -8.56 c0.16 -0.92 0.24 -1.88 0.4 -2.84 l0 -0.64 c-0.08 -0.04 -0.12 -0.04 -0.16 -0.08 z M27.919999999999998 24.2 c0.08 0.08 0.2 0.24 0.16 0.36 c-0.04 0.2 -0.16 0.36 -0.28 0.52 c-1.28 1.64 -2.56 3.32 -3.84 5 l-0.36 0.36 c-0.52 0.36 -1.08 0.28 -1.32 -0.28 c-0.24 -0.44 -0.4 -0.92 -0.4 -1.36 c0 -1.08 0.12 -2.16 0.2 -3.24 c0 -0.12 0 -0.24 0.04 -0.32 c-0.08 -0.04 0.36 -1.08 0.44 -1.64 c0.04 -0.04 0.04 -0.12 0.08 -0.12 c0.16 -0.08 0.32 -0.2 0.44 -0.16 s0.24 0.28 0.24 0.4 c-0.04 0.4 -0.16 0.8 -0.2 1.2 c-0.12 1.12 -0.28 2.24 -0.36 3.36 c-0.04 0.44 0.04 0.88 0.08 1.32 c0.44 0.16 0.64 -0.08 0.8 -0.32 c1.24 -1.52 2.44 -3.08 3.64 -4.6 c0.12 -0.16 0.2 -0.28 0.32 -0.4 c0.08 -0.08 0.28 -0.12 0.32 -0.08 z M22.24 20.76 c-0.16 -0.24 -0.32 -0.36 -0.36 -0.52 c-0.04 -0.28 0.2 -0.4 0.4 -0.36 c0.12 0 0.32 0.2 0.32 0.28 c-0.04 0.16 -0.2 0.32 -0.36 0.6 z M28.72 30.48 c0.08 -0.24 0.16 -0.36 0.16 -0.48 c0.96 -4 2.28 -7.84 3.52 -11.76 c0.08 -0.2 0.16 -0.44 0.24 -0.68 c0.56 -1.48 0.76 -3.04 0.8 -4.68 c0 -0.92 0.16 -1.84 0.24 -2.76 c0.04 -0.28 0.16 -0.56 0.28 -0.8 c0.08 -0.12 0.32 -0.2 0.48 -0.2 c0.12 0.04 0.28 0.24 0.32 0.36 c0.08 0.24 0.08 0.52 0.08 0.8 c0.04 1.32 -0.28 2.6 -0.52 3.88 c-0.12 0.68 -0.2 1.36 -0.24 2.04 c-0.04 2.92 -0.08 5.8 -0.12 8.72 c-0.04 3.6 -0.08 7.2 0.16 10.84 c0.04 0.56 0.12 1.16 0.12 1.72 c0.04 0.44 -0.12 0.68 -0.36 0.64 c-0.4 -0.08 -0.44 -0.36 -0.48 -0.68 c-0.08 -1.44 -0.2 -2.88 -0.2 -4.32 c-0.04 -3.28 -0.04 -6.56 -0.04 -9.84 c0 -1.6 0.04 -3.2 0.08 -4.96 c-0.12 0.2 -0.16 0.24 -0.2 0.32 c-1.36 4.28 -2.84 8.52 -3.76 12.96 c-0.2 1.16 -0.4 2.32 -0.6 3.44 c-0.04 0.24 -0.08 0.52 -0.2 0.76 c-0.08 0.08 -0.28 0.2 -0.4 0.16 s-0.2 -0.24 -0.32 -0.36 l0 -0.16 c0 -1.72 0 -3.4 0.04 -5.12 c0.04 -1.52 0.12 -3.04 0.2 -4.6 c0 -0.4 0.16 -0.84 -0.12 -1.28 c-0.04 -0.08 -0.04 -0.28 0 -0.4 c0.48 -1.2 0.44 -2.52 0.64 -3.8 c0.28 -2.08 0.52 -4.2 0.8 -6.28 c0.04 -0.2 0.08 -0.44 0.12 -0.64 s0.2 -0.36 0.44 -0.36 c0.28 0.04 0.4 0.24 0.44 0.44 c0.08 0.72 0.2 1.48 0.2 2.2 c0.04 2.08 -0.32 4.12 -1.04 6.04 c-0.4 1.12 -0.52 2.28 -0.56 3.44 c-0.12 1.64 -0.16 3.24 -0.24 4.88 c0 0.12 0 0.24 0.04 0.52 z M40.44 24.2 c0.08 0.08 0.2 0.24 0.16 0.36 c-0.04 0.2 -0.16 0.36 -0.28 0.52 c-1.28 1.64 -2.56 3.32 -3.84 5 l-0.36 0.36 c-0.52 0.36 -1.08 0.28 -1.32 -0.28 c-0.24 -0.44 -0.4 -0.92 -0.4 -1.36 c0 -1.08 0.12 -2.16 0.2 -3.24 c0 -0.12 0 -0.24 0.04 -0.32 c-0.08 -0.04 0.36 -1.08 0.44 -1.64 c0.04 -0.04 0.04 -0.12 0.08 -0.12 c0.16 -0.08 0.32 -0.2 0.44 -0.16 s0.24 0.28 0.24 0.4 c-0.04 0.4 -0.16 0.8 -0.2 1.2 c-0.12 1.12 -0.28 2.24 -0.36 3.36 c-0.04 0.44 0.04 0.88 0.08 1.32 c0.44 0.16 0.64 -0.08 0.8 -0.32 c1.24 -1.52 2.44 -3.08 3.64 -4.6 c0.12 -0.16 0.2 -0.28 0.32 -0.4 c0.08 -0.08 0.28 -0.12 0.32 -0.08 z M34.76 20.76 c-0.16 -0.24 -0.32 -0.36 -0.36 -0.52 c-0.04 -0.28 0.2 -0.4 0.4 -0.36 c0.12 0 0.32 0.2 0.32 0.28 c-0.04 0.16 -0.2 0.32 -0.36 0.6 z M42.04 23.8 c0.2 -0.12 0.36 -0.28 0.52 -0.36 c0.12 -0.08 0.24 -0.04 0.4 -0.08 c0 0.16 0.04 0.36 -0.04 0.48 c-0.16 0.2 -0.36 0.36 -0.6 0.48 c-0.24 0.16 -0.52 0.24 -0.84 0.36 c0.64 1.56 -0.08 2.84 -0.8 4.08 c-0.2 0.28 -0.44 0.56 -0.72 0.76 c-0.52 0.32 -1.08 0.08 -1.2 -0.52 c-0.08 -0.36 -0.12 -0.76 -0.04 -1.16 c0.16 -1.32 0.76 -2.52 1.56 -3.6 c0.16 -0.2 0.32 -0.36 0.52 -0.52 c0.48 -0.4 0.72 -0.4 1.24 0.08 z M39.48 29.08 c0.84 -0.92 1.24 -1.96 1.44 -3.08 c0.08 -0.36 0.2 -0.8 -0.24 -1.12 c-0.88 0.92 -1.48 3 -1.2 4.2 z M53.28 23.56 c0.6 -0.52 0.32 0.48 -1.28 1.6 c-1.96 1.36 -3.8 2.84 -5.56 4.44 l0 0.04 c-0.04 0.04 -0.08 0.08 -0.16 0.12 l-0.04 0 l0 0 c-0.08 0.04 -0.16 0.04 -0.24 0.04 c-0.12 -0.04 -0.24 -0.2 -0.24 -0.32 c-0.04 -0.32 -0.04 -0.68 0 -1 c0.2 -1.52 0.44 -3.04 0.64 -4.56 l0 -0.56 c-0.16 0.16 -0.28 0.24 -0.36 0.36 c-1 1.52 -1.88 3.12 -2.48 4.84 c-0.12 0.32 -0.16 0.68 -0.24 1.04 c-0.08 0.24 -0.16 0.48 -0.28 0.72 c-0.12 0.2 -0.32 0.44 -0.56 0.28 c-0.2 -0.08 -0.4 -0.28 -0.44 -0.48 c-0.08 -0.32 -0.08 -0.68 -0.04 -1 c0.16 -1.36 0.32 -2.68 0.52 -4 c0.12 -0.96 0.28 -1.92 0.44 -2.92 c0 -0.24 0.44 -1.36 0.52 -0.76 c0.08 0.48 0.04 1 0 1.52 c-0.24 1.8 -0.48 3.64 -0.72 5.48 c-0.04 0.16 0 0.36 0.04 0.56 c0.12 -0.32 0.24 -0.64 0.36 -1 c0.68 -1.8 1.64 -3.44 2.72 -5.04 c0.08 -0.08 0.12 -0.24 0.24 -0.28 c0.16 -0.08 0.4 -0.2 0.56 -0.16 s0.32 0.32 0.36 0.48 c0 0.56 0 1.12 -0.04 1.64 l-0.48 3.72 c0 0.16 0.04 0.32 0.04 0.48 c0.68 -0.6 1.32 -1.2 2 -1.76 c1.56 -1.2 3.16 -2.32 4.72 -3.52 z M54.24 25.8 c0.2 -0.24 0.36 -0.44 0.52 -0.64 s0.4 -0.36 0.64 -0.16 c0.12 0.12 0.16 0.4 0.16 0.6 c-0.12 0.68 -0.28 1.36 -0.44 2.04 c-0.04 0.28 -0.04 0.56 -0.08 0.84 c0.84 -0.44 2 -3.16 2 -4.76 c-0.16 0 -0.32 0.04 -0.48 0 c-0.56 -0.08 -0.92 -0.4 -0.96 -0.96 c-0.12 -0.72 0.04 -1.32 0.52 -1.8 c0.6 -0.64 1.4 -0.4 1.72 0.52 c0.08 0.16 0.16 0.36 0.24 0.6 c0.32 -0.2 0.6 -0.44 0.92 -0.64 c0.24 -0.16 0.48 -0.32 0.84 -0.16 c0.36 0.2 0.48 0.56 0.44 0.88 c0 1 -0.04 1.96 -0.12 2.92 c-0.24 2.24 -0.52 4.44 -0.68 6.68 c-0.12 1.36 -0.08 2.76 -0.08 4.12 c0 0.36 0.12 0.76 0.2 1.12 c0.08 0.28 0.08 0.48 -0.16 0.6 c-0.24 0.08 -0.56 -0.04 -0.68 -0.32 c-0.08 -0.24 -0.16 -0.48 -0.16 -0.72 c-0.04 -1.4 -0.16 -2.8 -0.08 -4.16 c0.24 -2.76 0.56 -5.48 0.8 -8.2 c0.08 -0.6 0.12 -1.24 0.16 -2 c-0.56 0.4 -1 0.64 -1.4 1 c-0.12 0.08 -0.12 0.36 -0.16 0.56 c-0.28 1.84 -0.8 3.56 -1.84 5 c-0.2 0.28 -0.44 0.56 -0.72 0.76 c-0.48 0.36 -1 0.08 -1.12 -0.52 c-0.08 -0.4 0 -0.76 0 -1.16 c0 -0.2 0.04 -0.4 0.08 -0.6 c-0.08 0 -0.12 -0.04 -0.16 -0.08 c-0.16 0.2 -0.32 0.36 -0.48 0.56 c-0.44 0.52 -0.84 1.04 -1.32 1.56 c-0.28 0.32 -0.68 0.64 -1.24 0.36 c-0.48 -0.28 -0.56 -0.8 -0.52 -1.32 c0.08 -0.92 0.4 -1.76 0.96 -2.48 c0.8 -1 1.52 -1 2.68 -0.04 z M53.72 26.48 c-0.56 -0.76 -0.84 -0.84 -1.36 -0.32 c-0.64 0.6 -0.96 1.4 -1 2.36 c0 0.12 0.04 0.24 0.12 0.56 c0.92 -0.84 1.52 -1.8 2.24 -2.6 z M57 21.48 c-0.56 0.32 -0.72 0.76 -0.44 1.36 c0.76 -0.16 0.84 -0.32 0.44 -1.36 z M60.72 27.4 c0.04 -1.04 0.32 -2.08 0.88 -3.04 c0.2 -0.36 0.56 -0.68 0.92 -0.96 c0.2 -0.2 0.52 -0.32 0.88 -0.16 c0.36 0.08 0.44 0.32 0.48 0.6 c0 0.04 0.04 0.12 0 0.2 c-0.28 1.12 -0.88 2.12 -2.04 2.88 c-0.2 0.08 -0.36 0.2 -0.36 0.36 c-0.04 0.6 0.04 1.16 0.36 1.68 c0.24 0.48 0.6 0.52 1 0.16 c0.28 -0.28 1.4 -1.6 1.64 -1.88 c0.12 -0.16 0.2 -0.32 0.44 -0.24 c0.24 0.12 0.2 0.24 0.08 0.4 c-0.2 0.32 -1.32 1.68 -1.6 1.96 c-0.68 0.72 -1.68 0.64 -2.2 -0.16 c-0.36 -0.56 -0.52 -1.16 -0.48 -1.8 z M61.64 26.36 c0.92 -0.56 1.68 -1.96 1.44 -2.64 c-1 0.72 -1.2 1.68 -1.44 2.64 z M82.32 15.760000000000002 c-0.32 0.4 -0.6 0.8 -0.88 1.2 c-1.96 2.88 -3.64 5.92 -5.2 9.04 c-1.36 2.76 -2.52 5.64 -3.6 8.52 l-0.6 1.56 c-0.12 0.24 -0.24 0.48 -0.4 0.68 c-0.48 0.68 -1.2 0.64 -1.44 -0.16 c-0.24 -0.76 -0.4 -1.6 -0.4 -2.4 c-0.2 -4.12 0.08 -8.2 0.56 -12.28 c0.04 -0.48 0.16 -1 0.28 -1.48 c0.04 -0.2 0.12 -0.44 0.2 -0.6 c0.16 -0.4 0.36 -0.8 0.84 -0.8 c0.44 0 0.68 0.32 0.84 0.72 c0.16 0.32 0.28 0.68 0.4 1.04 c0.28 0.92 0.52 1.8 0.8 2.72 c0.16 0.56 0.28 1.2 0.84 1.6 c0.08 0.08 0.08 0.32 0.04 0.44 s-0.28 0.2 -0.36 0.16 c-0.24 -0.12 -0.48 -0.24 -0.64 -0.44 c-0.2 -0.36 -0.4 -0.76 -0.52 -1.16 c-0.36 -1.08 -0.68 -2.16 -1 -3.24 c-0.08 -0.24 -0.2 -0.48 -0.32 -0.76 c-0.84 2.04 -1.36 13.6 -0.72 15.6 c0.28 -0.24 0.32 -0.56 0.44 -0.88 c0.8 -1.96 1.52 -4 2.32 -5.96 c1.84 -4.36 4.08 -8.52 6.72 -12.44 c0.36 -0.48 0.68 -0.92 1.08 -1.36 c0.16 -0.2 0.36 -0.4 0.6 -0.52 c0.52 -0.32 1.08 -0.08 1.2 0.52 c0.12 0.48 0.12 1 0.08 1.48 c-0.16 1.28 -0.32 2.56 -0.56 3.84 l-1.56 9 c-0.04 0.16 -0.04 0.28 0.04 0.44 c0.12 -0.24 0.2 -0.48 0.32 -0.72 c1.24 -3.28 2.68 -6.44 4.48 -9.48 c0.52 -0.88 1.12 -1.72 1.72 -2.56 c0.24 -0.36 0.56 -0.68 0.88 -0.96 c0.88 -0.72 1.76 -0.48 2.12 0.64 c0.08 0.24 0.16 0.52 0.16 0.76 c0 1.36 0.04 2.68 -0.04 4.04 c-0.24 3.08 -0.56 6.16 -0.8 9.24 c-0.08 0.84 -0.12 1.72 -0.12 2.6 c-0.04 0.44 -0.04 0.88 -0.04 1.2 c0.16 0.16 0.2 0.24 0.24 0.24 c0.48 0.16 0.64 0.32 0.52 0.64 c-0.12 0.4 -0.56 0.64 -0.96 0.52 s-0.64 -0.36 -0.72 -0.76 c-0.08 -0.44 -0.2 -0.92 -0.2 -1.4 c0.04 -1.2 0.04 -2.4 0.16 -3.6 c0.28 -3.12 0.6 -6.24 0.84 -9.4 c0.08 -0.92 0.12 -1.84 0.08 -2.8 c0 -0.4 -0.12 -0.8 -0.2 -1.4 c-0.36 0.32 -0.64 0.48 -0.8 0.68 c-0.48 0.6 -0.92 1.2 -1.32 1.8 c-2.12 3.28 -3.8 6.8 -5.16 10.44 c-0.16 0.48 -0.36 1 -0.56 1.48 c-0.08 0.2 -0.2 0.44 -0.32 0.64 c-0.16 0.32 -0.4 0.64 -0.8 0.6 c-0.36 -0.04 -0.64 -0.36 -0.6 -0.88 c0 -1.16 0.04 -2.36 0.24 -3.52 c0.44 -2.84 1.04 -5.68 1.56 -8.56 c0.16 -0.92 0.24 -1.88 0.4 -2.84 l0 -0.64 c-0.08 -0.04 -0.12 -0.04 -0.16 -0.08 z M97.64 24.2 c0.08 0.08 0.2 0.24 0.16 0.36 c-0.04 0.2 -0.16 0.36 -0.28 0.52 c-1.28 1.64 -2.56 3.32 -3.84 5 l-0.36 0.36 c-0.52 0.36 -1.08 0.28 -1.32 -0.28 c-0.24 -0.44 -0.4 -0.92 -0.4 -1.36 c0 -1.08 0.12 -2.16 0.2 -3.24 c0 -0.12 0 -0.24 0.04 -0.32 c-0.08 -0.04 0.36 -1.08 0.44 -1.64 c0.04 -0.04 0.04 -0.12 0.08 -0.12 c0.16 -0.08 0.32 -0.2 0.44 -0.16 s0.24 0.28 0.24 0.4 c-0.04 0.4 -0.16 0.8 -0.2 1.2 c-0.12 1.12 -0.28 2.24 -0.36 3.36 c-0.04 0.44 0.04 0.88 0.08 1.32 c0.44 0.16 0.64 -0.08 0.8 -0.32 c1.24 -1.52 2.44 -3.08 3.64 -4.6 c0.12 -0.16 0.2 -0.28 0.32 -0.4 c0.08 -0.08 0.28 -0.12 0.32 -0.08 z M91.96 20.76 c-0.16 -0.24 -0.32 -0.36 -0.36 -0.52 c-0.04 -0.28 0.2 -0.4 0.4 -0.36 c0.12 0 0.32 0.2 0.32 0.28 c-0.04 0.16 -0.2 0.32 -0.36 0.6 z M108.03999999999999 23.56 c0.6 -0.52 0.32 0.48 -1.28 1.6 c-1.96 1.36 -3.8 2.84 -5.56 4.44 l0 0.04 c-0.04 0.04 -0.08 0.08 -0.16 0.12 l-0.04 0 l0 0 c-0.08 0.04 -0.16 0.04 -0.24 0.04 c-0.12 -0.04 -0.24 -0.2 -0.24 -0.32 c-0.04 -0.32 -0.04 -0.68 0 -1 c0.2 -1.52 0.44 -3.04 0.64 -4.56 l0 -0.56 c-0.16 0.16 -0.28 0.24 -0.36 0.36 c-1 1.52 -1.88 3.12 -2.48 4.84 c-0.12 0.32 -0.16 0.68 -0.24 1.04 c-0.08 0.24 -0.16 0.48 -0.28 0.72 c-0.12 0.2 -0.32 0.44 -0.56 0.28 c-0.2 -0.08 -0.4 -0.28 -0.44 -0.48 c-0.08 -0.32 -0.08 -0.68 -0.04 -1 c0.16 -1.36 0.32 -2.68 0.52 -4 c0.12 -0.96 0.28 -1.92 0.44 -2.92 c0 -0.24 0.44 -1.36 0.52 -0.76 c0.08 0.48 0.04 1 0 1.52 c-0.24 1.8 -0.48 3.64 -0.72 5.48 c-0.04 0.16 0 0.36 0.04 0.56 c0.12 -0.32 0.24 -0.64 0.36 -1 c0.68 -1.8 1.64 -3.44 2.72 -5.04 c0.08 -0.08 0.12 -0.24 0.24 -0.28 c0.16 -0.08 0.4 -0.2 0.56 -0.16 s0.32 0.32 0.36 0.48 c0 0.56 0 1.12 -0.04 1.64 l-0.48 3.72 c0 0.16 0.04 0.32 0.04 0.48 c0.68 -0.6 1.32 -1.2 2 -1.76 c1.56 -1.2 3.16 -2.32 4.72 -3.52 z M112.11999999999999 17 c-0.84 2.12 -1.64 4.24 -2.48 6.36 l0.6 1.08 c-0.44 0.56 -0.56 -0.08 -0.92 -0.2 c-0.12 0.2 -0.28 0.48 -0.4 0.72 c-0.76 1.44 -1.52 2.88 -2.32 4.28 c-0.28 0.44 -0.64 0.76 -0.96 1.08 c-0.24 0.24 -0.52 0.28 -0.8 0.08 c-0.28 -0.24 -0.36 -0.6 -0.32 -0.96 c0.04 -0.28 0.08 -0.56 0.16 -0.8 c0.56 -1.92 1.44 -3.52 2.8 -4.64 c0.28 -0.2 0.6 -0.48 0.92 -0.52 c0.44 -0.08 0.68 -0.4 0.88 -0.92 c1.36 -3.48 2.76 -6.96 3.84 -10.6 c0.04 -0.08 0.04 -0.2 0.08 -0.24 c0.16 -0.12 0.32 -0.36 0.44 -0.32 c0.24 0.04 0.32 0.32 0.24 0.64 c-0.24 1.32 -0.48 2.64 -0.68 4 c-0.52 3.44 -1.08 6.84 -1.48 10.32 c-0.36 3.16 -0.44 6.36 -0.24 9.56 c0.04 0.8 0.08 1.6 0.16 2.44 c0 0.28 -0.04 0.56 -0.28 0.64 c-0.28 0.04 -0.4 -0.2 -0.44 -0.48 c-0.04 -0.24 -0.08 -0.44 -0.12 -0.64 c-0.16 -2.76 -0.16 -5.52 -0.08 -8.28 c0.16 -4.2 0.8 -8.28 1.48 -12.32 c0.04 -0.12 0 -0.2 0 -0.28 l-0.08 0 z M105.24 29.6 c0.8 -0.48 2.64 -3.52 3.12 -5.2 c-1.4 0.6 -3.08 3.4 -3.12 5.2 z" fill="#FFFFFF"></path></g></svg>